<svg width="102" height="102" viewBox="0 0 102 102" fill="none" xmlns="http://www.w3.org/2000/svg">
<path d="M50.9974 0.166016C22.9374 0.166016 0.164062 22.9393 0.164062 50.9993C0.164062 79.0593 22.9374 101.833 50.9974 101.833C79.0574 101.833 101.831 79.0593 101.831 50.9993C101.831 22.9393 79.0574 0.166016 50.9974 0.166016ZM27.3599 84.041C34.0191 79.2627 42.1524 76.416 50.9974 76.416C59.8424 76.416 67.9757 79.2627 74.6349 84.041C67.9757 88.8193 59.8424 91.666 50.9974 91.666C42.1524 91.666 34.0191 88.8193 27.3599 84.041ZM82.2091 77.026C73.6182 70.316 62.7907 66.2493 50.9974 66.2493C39.2041 66.2493 28.3766 70.316 19.7857 77.026C13.8891 69.9602 10.3307 60.9118 10.3307 50.9993C10.3307 28.531 28.5291 10.3327 50.9974 10.3327C73.4657 10.3327 91.6641 28.531 91.6641 50.9993C91.6641 60.9118 88.1057 69.9602 82.2091 77.026Z" fill="#797D86"/>
</svg>
