<svg width="45" height="45" viewBox="0 0 45 45" fill="none" xmlns="http://www.w3.org/2000/svg">
<circle cx="22.5" cy="22.5" r="22.5" fill="#01C5C6"/>
<path d="M33.5037 22.504C33.3727 22.379 33.1975 22.3109 33.0165 22.3146L23.6853 22.3146L23.6853 12.9834C23.6866 12.8917 23.6696 12.8007 23.6351 12.7157C23.6006 12.6307 23.5495 12.5535 23.4846 12.4887C23.3881 12.3922 23.2651 12.3268 23.1312 12.3007C22.9973 12.2746 22.8587 12.289 22.733 12.3421C22.6074 12.3953 22.5005 12.4847 22.4259 12.5989C22.3514 12.7132 22.3126 12.847 22.3146 12.9834L22.3146 22.3146L12.9834 22.3146C12.8922 22.3128 12.8016 22.3291 12.7168 22.3627C12.632 22.3963 12.5548 22.4465 12.4897 22.5104C12.4246 22.5742 12.3728 22.6504 12.3375 22.7344C12.3022 22.8185 12.284 22.9088 12.284 23C12.284 23.0912 12.3022 23.1815 12.3375 23.2655C12.3728 23.3496 12.4246 23.4258 12.4897 23.4896C12.5548 23.5534 12.632 23.6036 12.7168 23.6372C12.8016 23.6708 12.8922 23.6872 12.9834 23.6853L22.3146 23.6853V33.0165C22.3127 33.1077 22.3291 33.1983 22.3627 33.2831C22.3963 33.3679 22.4465 33.4451 22.5103 33.5102C22.5741 33.5754 22.6503 33.6271 22.7344 33.6624C22.8185 33.6978 22.9087 33.716 22.9999 33.716C23.0911 33.716 23.1814 33.6978 23.2655 33.6624C23.3496 33.6271 23.4257 33.5754 23.4896 33.5102C23.5534 33.4451 23.6036 33.3679 23.6372 33.2831C23.6708 33.1983 23.6872 33.1077 23.6853 33.0165L23.6853 23.6853L33.0165 23.6853C33.1546 23.6882 33.2904 23.6492 33.406 23.5735C33.5216 23.4979 33.6116 23.3891 33.6643 23.2613C33.7169 23.1336 33.7298 22.9929 33.7011 22.8578C33.6725 22.7226 33.6037 22.5993 33.5037 22.504Z" fill="white" stroke="white" stroke-width="0.3"/>
</svg>
